<svg width="48" height="48" viewBox="0 0 48 48" fill="none" xmlns="http://www.w3.org/2000/svg">
  <path d="M24 4C18 4 13 8 13 14C13 16 13.5 18 14.5 20C15.5 22 16 24 16 26C16 28 15 30 14 32C13 34 12 36 12 38C12 42 16 44 20 44C22 44 23 43 24 42C25 43 26 44 28 44C32 44 36 42 36 38C36 36 35 34 34 32C33 30 32 28 32 26C32 24 32.5 22 33.5 20C34.5 18 35 16 35 14C35 8 30 4 24 4Z" fill="#1B4698" stroke="#1B4698" stroke-width="2" stroke-linecap="round" stroke-linejoin="round"/>
  <path d="M20 26C20 28 19 30 18 32C17 34 16 36 16 38C16 40 18 41 20 41C21 41 22 40.5 22.5 40C23 40.5 23.5 41 24.5 41C25.5 41 26 40.5 26.5 40C27 40.5 27.5 41 28.5 41C30.5 41 32.5 40 32.5 38C32.5 36 31.5 34 30.5 32C29.5 30 28.5 28 28.5 26" fill="white" opacity="0.3"/>
  <circle cx="20" cy="18" r="1.5" fill="white" opacity="0.6"/>
  <circle cx="28" cy="18" r="1.5" fill="white" opacity="0.6"/>
</svg>
